<?xml version="1.0" encoding="UTF-8"?>
<!DOCTYPE svg  PUBLIC '-//W3C//DTD SVG 1.1//EN'  'http://www.w3.org/Graphics/SVG/1.1/DTD/svg11.dtd'>
<svg version="1.1" xmlns="http://www.w3.org/2000/svg">
<defs>
<font id="AvenirNextLTPro-Regular" horiz-adv-x="580">
<font-face font-family="AvenirNext LT Pro Regular" font-weight="400" ascent="756" bbox="-33 -250 958 945" cap-height="708" descent="-244" panose-1="2 11 5 4 2 2 2 2 2 4" underline-position="-100" underline-thickness="50" unicode-range="U+0020-00FE" units-per-em="1000" x-height="468"/>
<missing-glyph/>
<glyph glyph-name="space" horiz-adv-x="250" unicode=" "/>
<glyph d="M200 708v-516h-72v516h72zM218 48q0 -34 -30 -48q-12 -6 -24 -6q-36 0 -50 33q-4 11 -4 21q0 34 30 48q12 6 24 6q36 0 50 -33q4 -11 4 -21z" glyph-name="exclam" horiz-adv-x="328" unicode="!"/>
<glyph d="M100 473v235h60v-235h-60zM245 473v235h60v-235h-60z" glyph-name="quotedbl" horiz-adv-x="405" unicode='"'/>
<glyph d="M107 0l30 214h-102v60h110l22 162h-108v60h117l29 212h61l-29 -212h133l29 212h61l-29 -212h90v-60h-99l-22 -162h95v-60h-103l-30 -214h-61l30 214h-133l-30 -214h-61zM228 436l-22 -162h133l22 162h-133z" glyph-name="numbersign" horiz-adv-x="556" unicode="#"/>
<glyph d="M263 406v258q-70 -2 -105 -58q-19 -31 -19 -70q2 -96 124 -130zM311 321v-275q75 3 110 58q21 33 21 78q0 85 -103 129zM263 46v287q-138 42 -176 119q-17 35 -17 78q0 105 85 158q48 29 108 32v72h48v-72q96 -3 163 -59q12 -11 22 -22l-55 -42q-42 60 -120 66 q-6 1 -10 1v-275q120 -42 164 -95q39 -49 39 -117q0 -98 -80 -152q-53 -35 -123 -37v-72h-48v72q-127 3 -208 102q-2 2 -3 4l57 40q36 -60 116 -82q21 -5 38 -6z" glyph-name="dollar" unicode="$"/>
<glyph d="M390 545q0 -86 -67 -138q-48 -37 -109 -37q-87 0 -139 67q-37 47 -37 108q0 86 67 138q48 37 109 37q87 0 139 -67q37 -47 37 -108zM330 545q0 63 -52 96q-30 19 -64 19q-62 0 -96 -50q-20 -30 -20 -65q0 -63 52 -96q30 -19 64 -19q62 0 96 50q20 30 20 65zM795 163 q0 -86 -67 -138q-48 -37 -109 -37q-87 0 -139 67q-37 47 -37 108q0 86 67 138q48 37 109 37q87 0 139 -67q37 -47 37 -108zM735 163q0 63 -52 96q-30 19 -64 19q-62 0 -96 -50q-20 -30 -20 -65q0 -63 52 -96q30 -19 64 -19q62 0 96 50q20 30 20 65zM667 712l-450 -743 l-52 27l451 743z" glyph-name="percent" horiz-adv-x="833" unicode="%"/>
<glyph d="M659 383l-130 -219l159 -164h-100l-100 105q-72 -99 -172 -114q-22 -3 -46 -3q-117 0 -178 73q-43 51 -43 123q1 138 164 210q-85 89 -86 165q0 98 79 143q43 24 97 24q94 0 142 -64q29 -41 29 -95q0 -100 -132 -172q-13 -7 -27 -14l165 -170l98 172h81zM404 567 q0 60 -49 87q-24 13 -51 13q-66 0 -94 -53q-13 -25 -13 -56q0 -53 58 -116q10 -11 19 -18q109 50 126 114q4 15 4 29zM440 152l-187 196q-128 -60 -130 -165q0 -74 64 -112q38 -23 84 -23q87 0 146 71q11 15 23 33z" glyph-name="ampersand" horiz-adv-x="704" unicode="&amp;"/>
<glyph d="M100 473v235h60v-235h-60z" glyph-name="quotesingle" horiz-adv-x="260" unicode="'"/>
<glyph d="M98 288q0 191 99 362q16 28 33 52l-52 33q-109 -144 -138 -338q-8 -55 -8 -109q0 -205 103 -382q20 -35 43 -65l52 33q-104 147 -127 333q-5 41 -5 81z" glyph-name="parenleft" horiz-adv-x="300" unicode="("/>
<glyph d="M202 288q0 191 -99 362q-16 28 -33 52l52 33q109 -144 138 -338q8 -55 8 -109q0 -205 -103 -382q-20 -35 -43 -65l-52 33q104 147 127 333q5 41 5 81z" glyph-name="parenright" horiz-adv-x="300" unicode=")"/>
<glyph d="M252 708v-143l140 45l21 -56l-141 -45l90 -121l-48 -36l-92 124l-92 -124l-48 36l90 121l-141 45l21 56l140 -45v143h60z" glyph-name="asterisk" horiz-adv-x="444" unicode="*"/>
<glyph d="M363 558v-225h225v-60h-225v-225h-60v225h-225v60h225v225h60z" glyph-name="plus" horiz-adv-x="666" unicode="+"/>
<glyph d="M183 95l-81 -235h-57l67 235h71z" glyph-name="comma" horiz-adv-x="260" unicode=","/>
<glyph d="M272 271v-57h-224v57h224z" glyph-name="hyphen" horiz-adv-x="320" unicode="-"/>
<glyph d="M184 48q0 -34 -30 -48q-12 -6 -24 -6q-36 0 -50 33q-4 11 -4 21q0 34 30 48q12 6 24 6q36 0 50 -33q4 -11 4 -21z" glyph-name="period" horiz-adv-x="260" unicode="."/>
<glyph d="M365 706l-302 -724l-58 19l303 725z" glyph-name="slash" horiz-adv-x="370" unicode="/"/>
<glyph d="M290 726q153 0 207 -182q25 -83 25 -191q0 -222 -94 -316q-56 -55 -138 -55q-159 0 -211 191q-21 79 -21 180q0 231 99 323q54 50 133 50zM290 665q-114 0 -147 -176q-12 -62 -12 -136q0 -205 77 -277q35 -32 82 -32q109 0 145 165q14 65 14 144q0 190 -68 269 q-38 43 -91 43z" glyph-name="zero" unicode="0"/>
<glyph d="M358 708v-708h-72v619l-128 -109l-44 50l180 148h64z" glyph-name="one" unicode="1"/>
<glyph d="M504 64v-64h-453v75l290 293q84 88 85 162q0 76 -63 114q-35 21 -77 21q-82 0 -124 -70q-16 -26 -22 -56l-71 14q19 95 102 143q52 30 115 30q112 0 171 -71q42 -51 42 -124q0 -88 -77 -175q-16 -17 -38 -39l-255 -253h375z" glyph-name="two" unicode="2"/>
<glyph d="M214 340v62h31q127 0 157 82q8 22 8 48q0 73 -62 111q-35 22 -78 22q-92 -1 -135 -83l-61 32q66 111 200 112q106 0 165 -69q42 -50 42 -121q0 -90 -72 -139q-24 -15 -51 -23v-2q87 -18 124 -93q19 -38 19 -83q0 -116 -91 -175q-60 -39 -137 -39q-133 0 -202 103 q-13 20 -22 42l68 25q27 -76 102 -100q26 -8 54 -8q78 0 124 57q32 40 32 95q0 105 -109 135q-35 9 -75 9h-31z" glyph-name="three" unicode="3"/>
<glyph d="M436 708v-474h104v-63h-104v-171h-70v171h-324v70l300 467h94zM366 234v393h-2l-247 -393h249z" glyph-name="four" unicode="4"/>
<glyph d="M475 708v-64h-295l-5 -219q44 16 98 16q118 0 183 -81q47 -59 47 -141q0 -119 -83 -186q-63 -51 -152 -51q-140 0 -206 118q-3 6 -6 11l65 29q29 -67 97 -89q23 -7 46 -7q88 0 135 68q31 44 31 100q0 99 -77 145q-44 25 -99 25q-74 0 -147 -39l7 365h361z" glyph-name="five" unicode="5"/>
<glyph d="M400 708l-199 -309l2 -2q37 25 101 26q107 0 169 -77q47 -59 47 -141q0 -114 -84 -177q-62 -46 -146 -46q-116 0 -182 80q-48 60 -48 143q1 88 64 192l193 311h83zM132 205q0 -87 64 -133q41 -29 94 -29q86 0 131 67q27 42 27 95q0 89 -65 133q-40 27 -93 27 q-91 0 -134 -71q-24 -39 -24 -89z" glyph-name="six" unicode="6"/>
<glyph d="M498 708v-66l-285 -642h-81l293 644h-347v64h420z" glyph-name="seven" unicode="7"/>
<glyph d="M383 375q79 -23 115 -99q19 -42 19 -90q0 -102 -85 -161q-62 -43 -142 -43q-106 0 -173 69q-54 56 -54 135q0 101 74 158q28 21 60 31v2q-63 21 -92 89q-15 34 -15 71q0 99 79 153q53 36 121 36q98 0 156 -67q44 -52 44 -122q0 -80 -57 -131q-23 -20 -50 -29v-2zM160 533 q0 -71 58 -107q33 -20 72 -20q70 0 108 54q22 33 22 73q0 73 -57 111q-33 21 -73 21q-72 0 -109 -57q-21 -34 -21 -75zM135 194q0 -83 64 -125q40 -26 91 -26q89 0 131 67q24 37 24 84q0 82 -65 124q-39 24 -90 24q-90 0 -132 -66q-23 -37 -23 -82z" glyph-name="eight" unicode="8"/>
<glyph d="M182 0l199 309l-2 2q-37 -25 -101 -26q-107 0 -169 77q-47 59 -47 141q0 114 84 177q62 46 146 46q116 0 182 -80q48 -60 48 -143q-1 -88 -64 -192l-193 -311h-83zM450 503q0 87 -64 133q-41 29 -94 29q-86 0 -131 -67q-27 -42 -27 -95q0 -89 65 -133q40 -27 93 -27 q91 0 134 71q24 39 24 89z" glyph-name="nine" unicode="9"/>
<glyph d="M204 420q0 -34 -30 -48q-12 -6 -24 -6q-36 0 -50 33q-4 11 -4 21q0 34 30 48q12 6 24 6q36 0 50 -33q4 -11 4 -21zM204 48q0 -34 -30 -48q-12 -6 -24 -6q-36 0 -50 33q-4 11 -4 21q0 34 30 48q12 6 24 6q36 0 50 -33q4 -11 4 -21z" glyph-name="colon" horiz-adv-x="300" unicode=":"/>
<glyph d="M204 420q0 -34 -30 -48q-12 -6 -24 -6q-36 0 -50 33q-4 11 -4 21q0 34 30 48q12 6 24 6q36 0 50 -33q4 -11 4 -21zM199 95l-81 -235h-60l67 235h74z" glyph-name="semicolon" horiz-adv-x="300" unicode=";"/>
<glyph d="M588 564v-60l-429 -201l429 -201v-60l-510 238v46z" glyph-name="less" horiz-adv-x="666" unicode="&lt;"/>
<glyph d="M78 408h510v-60h-510v60zM78 258h510v-60h-510v60z" glyph-name="equal" horiz-adv-x="666" unicode="="/>
<glyph d="M78 504v60l510 -238v-46l-510 -238v60l429 201z" glyph-name="greater" horiz-adv-x="666" unicode="&gt;"/>
<glyph d="M274 238v-46h-70v60q0 76 62 135q8 8 18 17l28 25q57 48 58 111q0 75 -64 105q-28 13 -61 13q-77 0 -113 -66q-12 -24 -16 -51l-68 12q21 106 109 148q42 19 91 19q106 0 160 -69q34 -45 34 -107q0 -78 -55 -132q-13 -14 -37 -33q-52 -42 -64 -71q-12 -27 -12 -70z M300 48q0 -34 -30 -48q-12 -6 -24 -6q-36 0 -50 33q-4 11 -4 21q0 34 30 48q12 6 24 6q36 0 50 -33q4 -11 4 -21z" glyph-name="question" horiz-adv-x="482" unicode="?"/>
<glyph d="M412 489q-67 0 -103 -75q-20 -44 -20 -93q0 -67 40 -92q18 -11 40 -11q77 0 111 87q15 40 15 81q0 95 -72 102q-6 1 -11 1zM694 147l37 -46q-117 -119 -314 -119q-180 0 -287 115q-95 102 -95 256q0 155 108 262q104 105 258 111h16q155 0 255 -88q99 -89 99 -233 t-87 -210q-48 -35 -107 -35q-65 0 -83 48q-4 12 -4 25h-4q-17 -36 -61 -58q-31 -15 -64 -15q-87 0 -125 76q-20 39 -20 89q0 100 64 166q56 58 135 58q63 0 95 -44q6 -8 9 -16h4l10 45h62l-40 -186q-11 -49 -11 -80q3 -49 49 -50q59 0 91 73q20 47 20 107q0 154 -117 224 q-72 42 -171 42q-146 0 -233 -102q-73 -88 -73 -212q0 -159 109 -244q84 -64 205 -64q162 1 270 105z" glyph-name="at" horiz-adv-x="800" unicode="@"/>
<glyph d="M166 186l-77 -186h-79l306 708h70l304 -708h-80l-78 186h-366zM349 628l-156 -376h312z" glyph-name="A" horiz-adv-x="700" unicode="A"/>
<glyph d="M94 0v708h211q152 0 205 -88q23 -40 23 -93q0 -80 -64 -125q-28 -19 -61 -27v-2q97 -11 138 -86q22 -41 22 -91q0 -107 -99 -160q-68 -36 -165 -36h-210zM166 646v-248h145q92 0 131 56q19 29 19 68q0 96 -109 118q-29 6 -61 6h-125zM166 339v-277h134q132 0 177 71 q18 30 18 67q0 115 -129 135q-25 4 -53 4h-147z" glyph-name="B" horiz-adv-x="636" unicode="B"/>
<glyph d="M634 150l56 -36q-62 -94 -181 -122q-41 -10 -84 -10q-163 0 -268 109q-101 105 -101 263q0 163 108 269q105 103 261 103q124 0 209 -67q26 -21 43 -45l-60 -44q-37 57 -115 81q-37 12 -76 12q-144 0 -227 -107q-67 -85 -67 -202q0 -135 85 -223q83 -86 209 -86 q130 0 201 95q4 5 7 10z" glyph-name="C" horiz-adv-x="720" unicode="C"/>
<glyph d="M94 0v708h235q140 0 244 -82q127 -101 128 -272q0 -175 -131 -275q-105 -79 -241 -79h-235zM166 644v-580h143q172 0 259 115q57 76 57 175q0 124 -84 206q-88 84 -232 84h-143z" glyph-name="D" horiz-adv-x="757" unicode="D"/>
<glyph d="M166 337v-273h379v-64h-451v708h439v-64h-367v-244h343v-63h-343z" glyph-name="E" horiz-adv-x="592" unicode="E"/>
<glyph d="M166 335v-335h-72v708h427v-64h-355v-246h330v-63h-330z" glyph-name="F" horiz-adv-x="562" unicode="F"/>
<glyph d="M681 631l-50 -50q-78 82 -205 82q-142 0 -226 -106q-68 -86 -68 -203q0 -135 86 -223q83 -85 208 -85q121 0 191 46v215h-165v63h237v-319q-116 -69 -264 -69q-163 0 -268 109q-101 105 -101 263q0 163 108 269q105 103 261 103q159 -1 256 -95z" glyph-name="G" horiz-adv-x="779" unicode="G"/>
<glyph d="M94 0v708h72v-307h386v307h72v-708h-72v335h-386v-335h-72z" glyph-name="H" horiz-adv-x="718" unicode="H"/>
<glyph d="M166 708v-708h-72v708h72z" glyph-name="I" horiz-adv-x="260" unicode="I"/>
<glyph d="M25 126l67 18q13 -67 69 -90q22 -9 46 -9q124 2 125 164v499h72v-504q0 -134 -78 -190q-45 -32 -111 -32q-107 0 -161 76q-21 31 -29 68z" glyph-name="J" horiz-adv-x="492" unicode="J"/>
<glyph d="M166 708v-318h1l337 318h103l-357 -321l377 -387h-106l-354 377h-1v-377h-72v708h72z" glyph-name="K" horiz-adv-x="628" unicode="K"/>
<glyph d="M166 708v-644h330v-64h-402v708h72z" glyph-name="L" horiz-adv-x="510" unicode="L"/>
<glyph d="M204 708l240 -586h1l237 586h110v-708h-72v615h-2l-256 -615h-38l-256 615h-2v-615h-72v708h110z" glyph-name="M" horiz-adv-x="886" unicode="M"/>
<glyph d="M184 708l412 -603h2v603h72v-708h-90l-412 609h-2v-609h-72v708h90z" glyph-name="N" horiz-adv-x="764" unicode="N"/>
<glyph d="M794 354q0 -163 -108 -269q-105 -103 -261 -103q-160 0 -265 106q-104 107 -104 266q0 163 108 269q105 103 261 103q160 0 265 -106q104 -107 104 -266zM718 354q0 135 -85 223q-82 86 -208 86q-143 0 -227 -107q-66 -85 -66 -202q0 -135 85 -223q83 -85 208 -85 q144 0 227 107q66 85 66 201z" glyph-name="O" horiz-adv-x="850" unicode="O"/>
<glyph d="M94 0v708h200q167 0 219 -101q20 -39 20 -88q0 -128 -122 -172q-52 -18 -119 -18h-126v-329h-72zM166 646v-256h122q151 0 170 100q3 14 3 29q-2 126 -173 127h-122z" glyph-name="P" unicode="P"/>
<glyph d="M132 363q0 -132 83 -218q79 -82 199 -82q136 0 217 103q66 84 66 197q0 129 -82 216q-81 84 -201 84q-139 0 -219 -105q-63 -83 -63 -195zM819 64v-64h-405q-155 0 -257 104q-101 104 -101 259q0 160 106 264q102 99 252 99q155 0 257 -104q100 -104 100 -259 q0 -160 -110 -257q-26 -23 -56 -40v-2h214z" glyph-name="Q" horiz-adv-x="843" unicode="Q"/>
<glyph d="M166 331v-331h-72v708h208q217 0 240 -153q2 -18 2 -36q0 -102 -87 -152q-41 -24 -94 -30l207 -337h-88l-196 331h-120zM166 646v-253h125q163 0 179 103q2 12 2 23q-2 126 -178 127h-128z" glyph-name="R" horiz-adv-x="599" unicode="R"/>
<glyph d="M494 640l-57 -46q-51 70 -146 71q-75 0 -119 -48q-32 -36 -32 -85q0 -73 74 -109q24 -12 80 -30q100 -33 137 -58q72 -53 73 -149q0 -121 -104 -175q-57 -29 -127 -29q-119 0 -197 75q-14 14 -26 30l62 46q46 -74 132 -87q15 -2 30 -2q75 0 122 48q35 37 35 89 q0 79 -79 118q-28 13 -94 34q-113 35 -154 86q-36 45 -36 112q0 114 103 167q57 28 123 28q114 0 182 -66q11 -10 18 -20z" glyph-name="S" horiz-adv-x="564" unicode="S"/>
<glyph d="M321 644v-644h-72v644h-237v64h546v-64h-237z" glyph-name="T" horiz-adv-x="570" unicode="T"/>
<glyph d="M355 -18q-180 0 -241 150q-24 60 -24 132v444h72v-436q0 -140 84 -196q45 -30 109 -30q137 0 178 127q15 45 15 99v436h72v-444q0 -139 -79 -215q-69 -67 -186 -67z" glyph-name="U" horiz-adv-x="710" unicode="U"/>
<glyph d="M81 708l230 -615h2l230 615h77l-271 -708h-76l-270 708h78z" glyph-name="V" horiz-adv-x="623" unicode="V"/>
<glyph d="M90 708l175 -609h2l177 609h86l177 -609h2l173 609h76l-209 -708h-84l-178 608h-2l-178 -608h-84l-209 708h76z" glyph-name="W" horiz-adv-x="972" unicode="W"/>
<glyph d="M132 708l194 -286l193 286h86l-235 -337l260 -371h-90l-216 319l-215 -319h-90l260 372l-237 336h90z" glyph-name="X" horiz-adv-x="649" unicode="X"/>
<glyph d="M337 305v-305h-72v305l-265 403h90l213 -343l215 343h84z" glyph-name="Y" horiz-adv-x="602" unicode="Y"/>
<glyph d="M535 708v-60l-413 -584h419v-64h-510v60l414 584h-403v64h493z" glyph-name="Z" horiz-adv-x="572" unicode="Z"/>
<glyph d="M220 732v-54h-96v-780h96v-54h-162v888h162z" glyph-name="bracketleft" horiz-adv-x="300" unicode="["/>
<glyph d="M307 -18l-302 724l57 20l303 -725z" glyph-name="backslash" horiz-adv-x="370" unicode="\"/>
<glyph d="M80 -156v54h96v780h-96v54h162v-888h-162z" glyph-name="bracketright" horiz-adv-x="300" unicode="]"/>
<glyph d="M80 275l229 433h48l229 -433h-62l-191 361l-191 -361h-62z" glyph-name="asciicircum" horiz-adv-x="666" unicode="^"/>
<glyph d="M0 -125v50h500v-50h-500z" glyph-name="underscore" horiz-adv-x="500" unicode="_"/>
<glyph d="M122 564l-132 144h91l100 -144h-59z" glyph-name="grave" horiz-adv-x="240" unicode="`"/>
<glyph d="M385 287v15q-2 120 -125 121q-84 -1 -139 -55l-38 45q61 61 167 67h17q108 0 155 -72q27 -42 27 -98v-205q0 -63 8 -105h-61q-7 41 -7 76h-2q-58 -83 -156 -88h-14q-82 0 -128 50q-34 37 -34 92q0 112 135 142q67 15 195 15zM385 234h-20q-206 0 -235 -73q-5 -13 -5 -28 q0 -69 74 -85q17 -4 36 -4q89 0 129 72q21 38 21 83v35z" glyph-name="a" horiz-adv-x="534" unicode="a"/>
<glyph d="M162 79h-2v-79h-68v756h68v-369h2q49 74 141 90q18 3 36 3q122 0 191 -89q51 -67 51 -157q0 -119 -81 -189q-67 -57 -161 -57q-90 0 -153 62q-14 14 -24 29zM509 234q0 102 -69 155q-45 34 -108 34q-93 0 -145 -73q-35 -51 -35 -116q0 -97 69 -151q48 -37 111 -37 q104 0 151 83q26 47 26 105z" glyph-name="b" horiz-adv-x="637" unicode="b"/>
<glyph d="M480 399l-53 -38q-29 48 -92 59q-15 3 -28 3q-99 0 -149 -78q-30 -49 -30 -111q0 -100 70 -153q46 -35 108 -35q81 1 127 61l51 -38q-67 -81 -178 -81q-129 0 -199 90q-51 66 -51 156q0 122 86 192q68 54 164 54q88 0 150 -55q14 -12 24 -26z" glyph-name="c" horiz-adv-x="500" unicode="c"/>
<glyph d="M475 79q-49 -72 -139 -88q-20 -3 -38 -3q-122 0 -191 89q-51 67 -51 157q0 119 81 189q67 57 161 57q91 0 153 -64q14 -14 24 -29h2v369h68v-756h-68v79h-2zM128 234q0 -102 70 -155q45 -33 107 -33q94 0 145 73q35 50 35 115q0 96 -68 151q-49 38 -112 38 q-103 0 -151 -83q-26 -47 -26 -106z" glyph-name="d" horiz-adv-x="637" unicode="d"/>
<glyph d="M128 270h319q-4 97 -76 135q-35 18 -79 18q-82 0 -131 -66q-29 -40 -33 -87zM516 248q0 -20 -1 -32h-388q2 -85 67 -135q46 -35 104 -35q83 0 136 62q8 10 14 19l51 -40q-79 -99 -201 -99q-115 0 -185 83q-57 69 -57 163q0 116 81 188q66 58 155 58q131 0 190 -100 q34 -57 34 -132z" glyph-name="e" horiz-adv-x="572" unicode="e"/>
<glyph d="M288 468v-57h-110v-411h-68v411h-98v57h98v128q0 136 103 165q26 7 56 7q32 0 56 -7l-12 -60q-25 7 -47 7q-74 0 -85 -77q-3 -19 -3 -43v-120h110z" glyph-name="f" horiz-adv-x="295" unicode="f"/>
<glyph d="M66 -146l49 52q46 -59 127 -80q27 -6 52 -6q145 0 176 121q7 30 7 63v88h-2q-41 -65 -126 -86q-26 -6 -51 -6q-126 0 -194 89q-48 63 -48 149q0 113 79 183q67 59 163 59q88 0 149 -58q17 -17 28 -35h2v81h68v-464q0 -132 -87 -197q-64 -47 -167 -47q-116 0 -203 73 q-12 11 -22 21zM128 240q0 -94 66 -146q46 -36 111 -36q97 0 148 72q32 47 32 110q0 87 -64 141q-50 42 -116 42q-101 0 -150 -80q-27 -46 -27 -103z" glyph-name="g" horiz-adv-x="632" unicode="g"/>
<glyph d="M160 391h2q27 58 100 80q29 9 57 9q127 0 165 -107q13 -38 13 -86v-287h-68v259q0 138 -87 160q-19 4 -40 4q-73 0 -113 -65q-29 -48 -29 -118v-240h-68v756h68v-365z" glyph-name="h" horiz-adv-x="583" unicode="h"/>
<glyph d="M159 468v-468h-68v468h68zM173 648q0 -31 -29 -44q-10 -4 -19 -4q-30 0 -43 27q-5 11 -5 21q0 31 29 44q10 4 19 4q30 0 43 -27q5 -11 5 -21z" glyph-name="i" horiz-adv-x="250" unicode="i"/>
<glyph d="M-27 -233l10 57q20 -6 43 -6q53 0 63 54q3 18 3 46v550h68v-561q-2 -146 -133 -147q-30 0 -54 7zM174 648q0 -31 -29 -44q-10 -4 -19 -4q-30 0 -43 27q-5 11 -5 21q0 31 29 44q10 4 19 4q30 0 43 -27q5 -11 5 -21z" glyph-name="j" horiz-adv-x="251" unicode="j"/>
<glyph d="M160 756v-499h3l216 211h98l-236 -214l260 -254h-100l-238 246h-3v-246h-68v756h68z" glyph-name="k" horiz-adv-x="510" unicode="k"/>
<glyph d="M160 756v-756h-68v756h68z" glyph-name="l" horiz-adv-x="252" unicode="l"/>
<glyph d="M157 388q32 63 104 85q25 7 50 7q105 -2 144 -99q51 98 164 99q127 0 165 -107q13 -38 13 -86v-287h-68v259q-2 163 -121 164q-95 0 -124 -101q-9 -34 -9 -73v-249h-68v273q0 110 -54 138q-24 12 -59 12q-64 0 -103 -59q-33 -50 -33 -124v-240h-68v365q0 60 -4 103h65 q4 -50 4 -80h2z" glyph-name="m" horiz-adv-x="883" unicode="m"/>
<glyph d="M86 468h65q4 -50 4 -80h2q27 57 99 82q31 10 61 10q127 0 165 -107q13 -38 13 -86v-287h-68v259q0 138 -87 160q-19 4 -40 4q-73 0 -113 -65q-29 -48 -29 -118v-240h-68v365q0 60 -4 103z" glyph-name="n" horiz-adv-x="581" unicode="n"/>
<glyph d="M555 234q0 -118 -85 -189q-69 -57 -165 -57q-121 0 -193 85q-56 68 -56 161q0 118 84 189q69 57 165 57q122 0 194 -86q56 -67 56 -160zM483 234q0 98 -68 152q-47 37 -110 37q-97 0 -146 -78q-31 -49 -31 -111q0 -99 68 -152q47 -36 109 -36q98 0 148 78q30 48 30 110z " glyph-name="o" horiz-adv-x="611" unicode="o"/>
<glyph d="M158 79v-319h-68v708h68v-81h3q47 73 138 90q20 3 38 3q122 0 191 -89q51 -67 51 -157q0 -119 -81 -189q-67 -57 -161 -57q-88 0 -150 60q-15 15 -26 31h-3zM507 234q0 102 -69 155q-45 34 -108 34q-93 0 -145 -73q-35 -51 -35 -116q0 -97 69 -151q48 -37 111 -37 q104 0 151 83q26 47 26 105z" glyph-name="p" horiz-adv-x="635" unicode="p"/>
<glyph d="M477 79h-3q-47 -70 -135 -87q-21 -4 -41 -4q-122 0 -191 89q-51 67 -51 157q0 119 81 189q67 57 161 57q91 0 152 -63q14 -14 24 -30h3v81h68v-708h-68v319zM128 234q0 -102 70 -155q45 -33 107 -33q94 0 145 73q35 50 35 115q0 96 -68 151q-49 38 -112 38 q-103 0 -151 -83q-26 -47 -26 -106z" glyph-name="q" horiz-adv-x="635" unicode="q"/>
<glyph d="M90 365q0 60 -4 103h65q4 -50 4 -80h2q31 64 102 85q24 7 48 7q28 0 45 -5l-9 -64q-17 6 -48 6q-81 0 -117 -74q-20 -43 -20 -103v-240h-68v365z" glyph-name="r" horiz-adv-x="360" unicode="r"/>
<glyph d="M391 396l-52 -39q-28 54 -93 64q-11 2 -22 2q-69 0 -92 -42q-7 -14 -7 -31q0 -44 58 -65q22 -8 54 -15q138 -29 158 -104q4 -16 4 -33q0 -102 -100 -134q-35 -11 -76 -11q-112 0 -175 77l-10 14l54 40q30 -52 93 -68q19 -5 37 -5q95 0 108 63q2 10 2 19q0 44 -63 68 q-27 11 -75 22q-96 23 -122 73q-12 24 -12 53q0 89 87 122q37 14 80 14q82 0 137 -50q17 -16 27 -34z" glyph-name="s" horiz-adv-x="444" unicode="s"/>
<glyph d="M301 468v-57h-132v-273q0 -77 52 -85q9 -1 18 -1q29 0 59 15l3 -59q-38 -14 -80 -14q-86 0 -111 69q-9 25 -9 56v292h-97v57h97v132h68v-132h132z" glyph-name="t" horiz-adv-x="317" unicode="t"/>
<glyph d="M495 0h-65q-4 50 -4 80h-2q-27 -57 -99 -82q-31 -10 -61 -10q-127 0 -165 107q-13 38 -13 86v287h68v-259q0 -138 87 -160q19 -4 40 -4q73 0 113 65q29 48 29 118v240h68v-365q0 -60 4 -103z" glyph-name="u" horiz-adv-x="581" unicode="u"/>
<glyph d="M472 468l-190 -468h-75l-191 468h76l152 -396h2l153 396h73z" glyph-name="v" horiz-adv-x="488" unicode="v"/>
<glyph d="M26 468h73l113 -380h2l126 380h66l128 -380h2l112 380h72l-148 -468h-74l-125 379h-2l-123 -379h-74z" glyph-name="w" horiz-adv-x="746" unicode="w"/>
<glyph d="M16 0l184 242l-173 226h87l128 -178l128 178h82l-170 -223l186 -245h-88l-139 195l-143 -195h-82z" glyph-name="x" horiz-adv-x="484" unicode="x"/>
<glyph d="M92 468l159 -395h2l145 395h74l-233 -589q-35 -91 -96 -111q-23 -8 -51 -8q-31 0 -61 6l7 62q25 -8 50 -8q52 0 81 61q5 11 9 22l38 98l-200 467h76z" glyph-name="y" horiz-adv-x="488" unicode="y"/>
<glyph d="M401 468v-48l-280 -361h290v-59h-380v48l279 363h-265v57h356z" glyph-name="z" horiz-adv-x="442" unicode="z"/>
<glyph d="M0 258v60q68 0 78 86q1 12 1 25v178q0 110 87 123q10 2 21 2h63v-54h-48q-57 -1 -57 -83v-178q0 -88 -65 -120q-13 -6 -24 -8v-2q37 -5 64 -41q25 -35 25 -87v-178q2 -82 57 -83h48v-54h-63q-87 0 -104 85q-4 19 -4 40v178q0 101 -67 110q-6 1 -12 1z" glyph-name="braceleft" horiz-adv-x="300" unicode="{"/>
<glyph d="M81 750h60v-1000h-60v1000z" glyph-name="bar" horiz-adv-x="222" unicode="|"/>
<glyph d="M300 258v60q-68 0 -78 86q-1 12 -1 25v178q0 110 -87 123q-10 2 -21 2h-63v-54h48q57 -1 57 -83v-178q0 -88 65 -120q13 -6 24 -8v-2q-37 -5 -64 -41q-25 -35 -25 -87v-178q-2 -82 -57 -83h-48v-54h63q87 0 104 85q4 19 4 40v178q0 101 67 110q6 1 12 1z" glyph-name="braceright" horiz-adv-x="300" unicode="}"/>
<glyph d="M535 368l42 -40q-61 -92 -136 -93q-51 0 -100 29q-6 4 -11 7q-66 39 -103 40q-56 -1 -96 -73l-42 40q52 73 101 88q18 5 35 5q57 -1 110 -35q64 -41 103 -41q53 1 97 73z" glyph-name="asciitilde" horiz-adv-x="666" unicode="~"/>
<glyph glyph-name="uni00A0" horiz-adv-x="250" unicode=" "/>
<glyph d="M200 -229v516h-72v-516h72zM218 431q0 34 -30 48q-12 6 -24 6q-36 0 -50 -33q-4 -11 -4 -21q0 -34 30 -48q12 -6 24 -6q36 0 50 33q4 11 4 21z" glyph-name="exclamdown" horiz-adv-x="328" unicode="¡"/>
<glyph d="M298 51v366q-86 -15 -121 -97q-17 -40 -17 -86q0 -102 69 -154q31 -22 69 -29zM346 419v-370q66 4 103 55l4 6l54 -41q-64 -75 -161 -80v-61h-48v63q-120 13 -176 110q-34 59 -34 133q0 124 85 193q53 42 125 50v63h48v-61q98 -6 161 -80l-54 -41q-32 51 -95 60 q-7 1 -12 1z" glyph-name="cent" unicode="¢"/>
<glyph d="M417 395v-60h-168v-275h262v-60h-436v60h102v275h-96v60h96v93q0 139 84 200q51 38 128 38q98 -1 155 -60l-47 -51q-44 49 -111 50q-112 0 -133 -129q-4 -26 -4 -54v-87h168z" glyph-name="sterling" unicode="£"/>
<glyph d="M636 468q51 -68 51 -159q-1 -97 -55 -164q16 -15 47 -47q32 -31 47 -46l-21 -21q-15 -16 -22 -23l-95 95q-68 -51 -157 -51q-90 1 -158 53l-97 -97q-28 30 -43 44l96 96q-53 65 -53 161q1 92 50 157q-32 31 -93 92q16 15 44 43l92 -92q70 55 162 55q93 -1 160 -54l91 91 q16 -15 44 -43zM431 496q-98 0 -150 -76q-32 -49 -32 -111q0 -96 67 -150q49 -39 115 -39q98 0 150 77q32 49 32 112q0 95 -67 149q-49 38 -115 38z" glyph-name="currency" horiz-adv-x="860" unicode="¤"/>
<glyph d="M91 223h165v105h-165v54h145l-226 326h89l193 -300l192 300h86l-224 -326h143v-54h-165v-105h165v-54h-165v-169h-68v169h-165v54z" glyph-name="yen" unicode="¥"/>
<glyph d="M81 675h60v-350h-60v350zM81 175h60v-350h-60v350z" glyph-name="brokenbar" horiz-adv-x="222" unicode="¦"/>
<glyph d="M474 632l-59 -30q-19 48 -75 60q-16 4 -33 4q-76 0 -100 -51q-8 -18 -8 -38q0 -60 68 -94q13 -7 30 -14l87 -41q102 -51 103 -142q0 -77 -62 -118q-13 -8 -27 -13q70 -44 71 -125q0 -102 -92 -144q-43 -19 -96 -19q-122 0 -179 80q-11 17 -19 35l66 32q27 -75 110 -86 q11 -1 22 -1q74 0 103 47q13 22 13 51q-1 60 -75 96l-127 61q-78 38 -92 101q-3 16 -3 33q0 79 72 118q15 9 32 14q-76 47 -77 120q0 98 88 139q42 19 93 19q105 0 152 -67q9 -13 14 -27zM320 384l-61 26q-55 -6 -78 -47q-11 -20 -11 -43q0 -47 51 -76q20 -11 57 -27l66 -30 q48 12 66 53q7 17 7 36q0 60 -67 94q-13 7 -30 14z" glyph-name="section" unicode="§"/>
<glyph d="M-27 647q0 32 29 46q11 5 22 5q34 0 47 -32q4 -10 4 -19q0 -32 -29 -46q-11 -5 -22 -5q-34 0 -47 32q-4 10 -4 19zM165 647q0 32 29 46q11 5 22 5q34 0 47 -32q4 -10 4 -19q0 -32 -29 -46q-11 -5 -22 -5q-34 0 -47 32q-4 10 -4 19z" glyph-name="dieresis" horiz-adv-x="240" unicode="¨"/>
<glyph d="M580 224l-52 34q-46 -64 -118 -65q-88 0 -132 73q-25 42 -25 93q0 83 60 131q42 34 99 34q55 0 97 -45q6 -7 11 -14l52 40q-40 60 -123 75q-20 4 -39 4q-111 0 -176 -79q-50 -62 -50 -146q0 -112 81 -177q62 -49 145 -49q98 0 159 76q6 8 11 15zM20 353q0 -150 104 -258 q102 -106 250 -116q14 -1 27 -1q151 0 261 102q108 101 117 248q1 13 1 25q0 151 -104 260q-102 106 -249 116q-14 1 -26 1q-151 0 -261 -102q-109 -101 -119 -248q-1 -14 -1 -27zM80 353q0 132 94 226q95 94 227 95q132 0 225 -94q93 -95 94 -227q0 -132 -93 -225 q-94 -94 -226 -94t-226 93q-94 95 -95 226z" glyph-name="copyright" horiz-adv-x="800" unicode="©"/>
<glyph d="M244 606v8q0 52 -56 60q-9 1 -17 1q-51 -1 -83 -32l-32 35q48 42 120 42q93 0 117 -70q6 -19 6 -40v-123q0 -37 4 -56h-52q-5 22 -5 41h-2q-33 -47 -98 -48q-66 0 -93 42q-13 20 -13 45q0 82 140 93q28 2 64 2zM244 566h-15q-129 -1 -130 -54q7 -41 59 -44q61 0 80 49 q6 16 6 34v15z" glyph-name="ordfeminine" horiz-adv-x="360" unicode="ª"/>
<glyph d="M239 416l-115 -176l115 -176l-47 -33l-140 209l140 209zM421 416l-115 -176l115 -176l-47 -33l-140 209l140 209z" glyph-name="guillemotleft" horiz-adv-x="482" unicode="«"/>
<glyph d="M588 408v-278h-60v218h-450v60h510z" glyph-name="logicalnot" horiz-adv-x="666" unicode="¬"/>
<glyph d="M272 271v-57h-224v57h224z" glyph-name="uni00AD" horiz-adv-x="320" unicode="­"/>
<glyph d="M72 493q0 103 77 170q65 57 151 57q103 0 171 -76q57 -65 57 -151q0 -103 -78 -170q-65 -55 -150 -55q-103 0 -171 75q-57 64 -57 150zM108 493q0 -88 68 -146q54 -46 124 -46q89 0 147 69q45 54 45 123q0 90 -69 147q-54 45 -123 45q-90 0 -147 -69q-45 -54 -45 -123z M211 366v256h90q73 0 91 -49q4 -12 4 -26q0 -54 -56 -68q-2 -1 -3 -1l69 -112h-56l-60 107h-33v-107h-46zM257 510h37q55 2 56 38q-1 34 -51 35h-42v-73z" glyph-name="registered" horiz-adv-x="600" unicode="®"/>
<glyph d="M255 654v-54h-270v54h270z" glyph-name="macron" horiz-adv-x="240" unicode="¯"/>
<glyph d="M349 571q0 -81 -63 -124q-38 -25 -86 -25q-81 0 -124 63q-25 38 -25 86q0 81 63 124q38 25 86 25q81 0 124 -63q25 -38 25 -86zM301 571q0 56 -47 85q-25 16 -54 16q-56 0 -85 -47q-16 -25 -16 -54q0 -56 47 -85q25 -16 54 -16q56 0 85 47q16 25 16 54z" glyph-name="degree" horiz-adv-x="400" unicode="°"/>
<glyph d="M78 347v60h225v156h60v-156h225v-60h-225v-151h-60v151h-225zM78 48v60h510v-60h-510z" glyph-name="plusminus" horiz-adv-x="666" unicode="±"/>
<glyph d="M319 344v-54h-276v57l167 169q42 46 43 86q0 43 -40 58q-13 4 -27 4q-48 0 -69 -49q-4 -11 -6 -21l-60 9q14 71 74 102q29 14 61 14q79 0 114 -54q17 -28 17 -63q0 -57 -55 -114l-16 -16l-128 -128h201z" glyph-name="twosuperior" horiz-adv-x="370" unicode="²"/>
<glyph d="M137 484v51h27q81 5 84 70q0 41 -40 57q-14 5 -29 5q-48 -1 -75 -50l-50 26q44 76 127 77q80 0 112 -55q15 -26 15 -59q-1 -63 -57 -93q63 -24 69 -92v-10q0 -80 -70 -112q-32 -15 -70 -15q-102 1 -141 96l57 19q18 -54 73 -60q6 -1 11 -1q53 0 73 40q7 15 7 33 q0 59 -68 71q-14 2 -28 2h-27z" glyph-name="threesuperior" horiz-adv-x="370" unicode="³"/>
<glyph d="M250 708l-132 -144h-59l100 144h91z" glyph-name="acute" horiz-adv-x="240" unicode="´"/>
<glyph d="M72 -228v696h66v-259q0 -112 49 -143q29 -18 78 -18q79 0 118 72q24 45 24 108v240h66v-365q0 -20 5 -103h-71v76h-2q-33 -53 -99 -77q-30 -11 -58 -11q-69 1 -110 29v-245h-66z" glyph-name="mu" horiz-adv-x="556" unicode="µ"/>
<glyph d="M513 708v-834h-66v780h-124v-780h-66v442q-107 0 -168 72q-41 50 -41 114q0 128 103 180q53 26 125 26h237z" glyph-name="paragraph" horiz-adv-x="600" unicode="¶"/>
<glyph d="M184 314q0 -34 -30 -48q-12 -6 -24 -6q-36 0 -50 33q-4 11 -4 21q0 34 30 48q12 6 24 6q36 0 50 -33q4 -11 4 -21z" glyph-name="periodcentered" horiz-adv-x="260" unicode="·"/>
<glyph d="M156 0l-47 -75q14 4 35 4q50 0 72 -36q10 -17 10 -36q0 -67 -79 -83q-19 -4 -39 -4q-51 0 -94 20l16 36q31 -14 72 -14q38 0 56 22q8 10 8 22q-2 38 -54 39q-23 0 -43 -8l-18 15l62 98h43z" glyph-name="cedilla" horiz-adv-x="240" unicode="¸"/>
<glyph d="M232 708v-422h-61v346l-64 -57l-38 41l112 92h51z" glyph-name="onesuperior" horiz-adv-x="370" unicode="¹"/>
<glyph d="M332 572q0 -81 -64 -123q-39 -25 -88 -25q-84 0 -127 63q-25 38 -25 85q0 83 65 124q39 24 87 24q84 0 127 -63q25 -37 25 -85zM274 572q0 64 -47 91q-21 11 -47 11q-64 0 -86 -58q-8 -21 -8 -44q0 -62 45 -89q22 -13 49 -13q63 0 86 57q8 22 8 45z" glyph-name="ordmasculine" horiz-adv-x="360" unicode="º"/>
<glyph d="M243 64l115 176l-115 176l47 33l140 -209l-140 -209zM61 64l115 176l-115 176l47 33l140 -209l-140 -209z" glyph-name="guillemotright" horiz-adv-x="482" unicode="»"/>
<glyph d="M723 422v-270h60v-54h-60v-98h-55v98h-188v52l175 272h68zM668 340h-3l-122 -188h125v188zM232 708v-422h-61v346l-64 -57l-38 41l112 92h51zM667 712l-450 -743l-52 27l451 743z" glyph-name="onequarter" horiz-adv-x="840" unicode="¼"/>
<glyph d="M786 54v-54h-276v57l167 169q42 46 43 86q0 43 -40 58q-13 4 -27 4q-48 0 -69 -49q-4 -11 -6 -21l-60 9q14 71 74 102q29 14 61 14q79 0 114 -54q17 -28 17 -63q0 -57 -55 -114l-16 -16l-128 -128h201zM667 712l-450 -743l-52 27l451 743zM232 708v-422h-61v346l-64 -57 l-38 41l112 92h51z" glyph-name="onehalf" horiz-adv-x="840" unicode="½"/>
<glyph d="M723 422v-270h60v-54h-60v-98h-55v98h-188v52l175 272h68zM668 340h-3l-122 -188h125v188zM137 484v51h27q81 5 84 70q0 41 -40 57q-14 5 -29 5q-48 -1 -75 -50l-50 26q44 76 127 77q80 0 112 -55q15 -26 15 -59q-1 -63 -57 -93q63 -24 69 -92v-10q0 -80 -70 -112 q-32 -15 -70 -15q-102 1 -141 96l57 19q18 -54 73 -60q6 -1 11 -1q53 0 73 40q7 15 7 33q0 59 -68 71q-14 2 -28 2h-27zM667 712l-450 -743l-52 27l451 743z" glyph-name="threequarters" horiz-adv-x="840" unicode="¾"/>
<glyph d="M214 241v46h70v-60q0 -76 -62 -135q-8 -8 -18 -17l-28 -25q-57 -48 -58 -111q0 -75 64 -105q28 -13 61 -13q77 0 113 66q12 24 16 51l68 -12q-21 -106 -109 -148q-42 -19 -91 -19q-106 0 -160 69q-34 45 -34 107q0 78 55 132q13 14 37 33q52 42 64 71q12 27 12 70z M188 431q0 34 30 48q12 6 24 6q36 0 50 -33q4 -11 4 -21q0 -34 -30 -48q-12 -6 -24 -6q-36 0 -50 33q-4 11 -4 21z" glyph-name="questiondown" horiz-adv-x="482" unicode="¿"/>
<glyph d="M166 186l-77 -186h-79l306 708h70l304 -708h-80l-78 186h-366zM349 628l-156 -376h312zM324 764l-132 144h91l100 -144h-59z" glyph-name="Agrave" horiz-adv-x="700" unicode="À"/>
<glyph d="M166 186l-77 -186h-79l306 708h70l304 -708h-80l-78 186h-366zM349 628l-156 -376h312zM511 908l-132 -144h-59l100 144h91z" glyph-name="Aacute" horiz-adv-x="700" unicode="Á"/>
<glyph d="M166 186l-77 -186h-79l306 708h70l304 -708h-80l-78 186h-366zM349 628l-156 -376h312zM389 908l109 -144h-66l-83 108l-83 -108h-66l109 144h80z" glyph-name="Acircumflex" horiz-adv-x="700" unicode="Â"/>
<glyph d="M166 186l-77 -186h-79l306 708h70l304 -708h-80l-78 186h-366zM349 628l-156 -376h312zM231 776h-43q20 103 92 104q28 0 73 -23q50 -23 67 -23q37 1 49 50h43q-20 -103 -92 -104q-30 0 -73 23q-44 23 -67 23q-37 -1 -49 -50z" glyph-name="Atilde" horiz-adv-x="700" unicode="Ã"/>
<glyph d="M166 186l-77 -186h-79l306 708h70l304 -708h-80l-78 186h-366zM349 628l-156 -376h312zM204 847q0 32 29 46q11 5 22 5q34 0 47 -32q4 -10 4 -19q0 -32 -29 -46q-11 -5 -22 -5q-34 0 -47 32q-4 10 -4 19zM396 847q0 32 29 46q11 5 22 5q34 0 47 -32q4 -10 4 -19 q0 -32 -29 -46q-11 -5 -22 -5q-34 0 -47 32q-4 10 -4 19z" glyph-name="Adieresis" horiz-adv-x="700" unicode="Ä"/>
<glyph d="M166 186l-77 -186h-79l306 708h70l304 -708h-80l-78 186h-366zM349 628l-156 -376h312zM446 850q0 -54 -47 -82q-23 -13 -49 -13q-53 0 -81 44q-15 24 -15 51q0 54 47 82q23 13 49 13q53 0 81 -44q15 -24 15 -51zM410 850q0 37 -34 53q-13 6 -26 6q-38 0 -54 -33 q-6 -13 -6 -26q0 -37 34 -53q13 -6 26 -6q38 0 54 33q6 13 6 26z" glyph-name="Aring" horiz-adv-x="700" unicode="Å"/>
<glyph d="M591 337v-273h345v-64h-417v198h-298l-128 -198h-82l461 708h452v-64h-333v-244h309v-63h-309zM258 261h261v383h-14z" glyph-name="AE" horiz-adv-x="990" unicode="Æ"/>
<glyph d="M634 150l56 -36q-62 -94 -181 -122q-41 -10 -84 -10l-35 -57q14 4 35 4q50 0 72 -36q10 -17 10 -36q0 -67 -79 -83q-19 -4 -39 -4q-51 0 -94 20l16 36q31 -14 72 -14q38 0 56 22q8 10 8 22q-2 38 -54 39q-23 0 -43 -8l-18 15l52 82q-156 15 -248 131q-80 100 -80 239 q0 163 108 269q105 103 261 103q124 0 209 -67q26 -21 43 -45l-60 -44q-37 57 -115 81q-37 12 -76 12q-144 0 -227 -107q-67 -85 -67 -202q0 -135 85 -223q83 -86 209 -86q130 0 201 95q4 5 7 10z" glyph-name="Ccedilla" horiz-adv-x="720" unicode="Ç"/>
<glyph d="M166 337v-273h379v-64h-451v708h439v-64h-367v-244h343v-63h-343zM316 764l-132 144h91l100 -144h-59z" glyph-name="Egrave" horiz-adv-x="592" unicode="È"/>
<glyph d="M166 337v-273h379v-64h-451v708h439v-64h-367v-244h343v-63h-343zM456 908l-132 -144h-59l100 144h91z" glyph-name="Eacute" horiz-adv-x="592" unicode="É"/>
<glyph d="M166 337v-273h379v-64h-451v708h439v-64h-367v-244h343v-63h-343zM356 908l109 -144h-66l-83 108l-83 -108h-66l109 144h80z" glyph-name="Ecircumflex" horiz-adv-x="592" unicode="Ê"/>
<glyph d="M166 337v-273h379v-64h-451v708h439v-64h-367v-244h343v-63h-343zM169 847q0 32 29 46q11 5 22 5q34 0 47 -32q4 -10 4 -19q0 -32 -29 -46q-11 -5 -22 -5q-34 0 -47 32q-4 10 -4 19zM361 847q0 32 29 46q11 5 22 5q34 0 47 -32q4 -10 4 -19q0 -32 -29 -46q-11 -5 -22 -5 q-34 0 -47 32q-4 10 -4 19z" glyph-name="Edieresis" horiz-adv-x="592" unicode="Ë"/>
<glyph d="M166 708v-708h-72v708h72zM106 764l-132 144h91l100 -144h-59z" glyph-name="Igrave" horiz-adv-x="260" unicode="Ì"/>
<glyph d="M166 708v-708h-72v708h72zM285 908l-132 -144h-59l100 144h91z" glyph-name="Iacute" horiz-adv-x="260" unicode="Í"/>
<glyph d="M166 708v-708h-72v708h72zM170 908l109 -144h-66l-83 108l-83 -108h-66l109 144h80z" glyph-name="Icircumflex" horiz-adv-x="260" unicode="Î"/>
<glyph d="M166 708v-708h-72v708h72zM-17 847q0 32 29 46q11 5 22 5q34 0 47 -32q4 -10 4 -19q0 -32 -29 -46q-11 -5 -22 -5q-34 0 -47 32q-4 10 -4 19zM175 847q0 32 29 46q11 5 22 5q34 0 47 -32q4 -10 4 -19q0 -32 -29 -46q-11 -5 -22 -5q-34 0 -47 32q-4 10 -4 19z" glyph-name="Idieresis" horiz-adv-x="260" unicode="Ï"/>
<glyph d="M86 0v347h-73v54h73v307h235q140 0 244 -82q127 -101 128 -272q0 -175 -131 -275q-105 -79 -241 -79h-235zM158 347v-281h140q178 0 263 118q54 74 54 170q0 126 -86 207q-87 81 -231 81h-140v-241h258v-54h-258z" glyph-name="Eth" horiz-adv-x="757" unicode="Ð"/>
<glyph d="M184 708l412 -603h2v603h72v-708h-90l-412 609h-2v-609h-72v708h90zM266 776h-43q20 103 92 104q28 0 73 -23q50 -23 67 -23q37 1 49 50h43q-20 -103 -92 -104q-30 0 -73 23q-44 23 -67 23q-37 -1 -49 -50z" glyph-name="Ntilde" horiz-adv-x="764" unicode="Ñ"/>
<glyph d="M794 354q0 -163 -108 -269q-105 -103 -261 -103q-160 0 -265 106q-104 107 -104 266q0 163 108 269q105 103 261 103q160 0 265 -106q104 -107 104 -266zM718 354q0 135 -85 223q-82 86 -208 86q-143 0 -227 -107q-66 -85 -66 -202q0 -135 85 -223q83 -85 208 -85 q144 0 227 107q66 85 66 201zM439 764l-132 144h91l100 -144h-59z" glyph-name="Ograve" horiz-adv-x="850" unicode="Ò"/>
<glyph d="M794 354q0 -163 -108 -269q-105 -103 -261 -103q-160 0 -265 106q-104 107 -104 266q0 163 108 269q105 103 261 103q160 0 265 -106q104 -107 104 -266zM718 354q0 135 -85 223q-82 86 -208 86q-143 0 -227 -107q-66 -85 -66 -202q0 -135 85 -223q83 -85 208 -85 q144 0 227 107q66 85 66 201zM558 908l-132 -144h-59l100 144h91z" glyph-name="Oacute" horiz-adv-x="850" unicode="Ó"/>
<glyph d="M794 354q0 -163 -108 -269q-105 -103 -261 -103q-160 0 -265 106q-104 107 -104 266q0 163 108 269q105 103 261 103q160 0 265 -106q104 -107 104 -266zM718 354q0 135 -85 223q-82 86 -208 86q-143 0 -227 -107q-66 -85 -66 -202q0 -135 85 -223q83 -85 208 -85 q144 0 227 107q66 85 66 201zM465 908l109 -144h-66l-83 108l-83 -108h-66l109 144h80z" glyph-name="Ocircumflex" horiz-adv-x="850" unicode="Ô"/>
<glyph d="M794 354q0 -163 -108 -269q-105 -103 -261 -103q-160 0 -265 106q-104 107 -104 266q0 163 108 269q105 103 261 103q160 0 265 -106q104 -107 104 -266zM718 354q0 135 -85 223q-82 86 -208 86q-143 0 -227 -107q-66 -85 -66 -202q0 -135 85 -223q83 -85 208 -85 q144 0 227 107q66 85 66 201zM306 776h-43q20 103 92 104q28 0 73 -23q50 -23 67 -23q37 1 49 50h43q-20 -103 -92 -104q-30 0 -73 23q-44 23 -67 23q-37 -1 -49 -50z" glyph-name="Otilde" horiz-adv-x="850" unicode="Õ"/>
<glyph d="M794 354q0 -163 -108 -269q-105 -103 -261 -103q-160 0 -265 106q-104 107 -104 266q0 163 108 269q105 103 261 103q160 0 265 -106q104 -107 104 -266zM718 354q0 135 -85 223q-82 86 -208 86q-143 0 -227 -107q-66 -85 -66 -202q0 -135 85 -223q83 -85 208 -85 q144 0 227 107q66 85 66 201zM278 847q0 32 29 46q11 5 22 5q34 0 47 -32q4 -10 4 -19q0 -32 -29 -46q-11 -5 -22 -5q-34 0 -47 32q-4 10 -4 19zM470 847q0 32 29 46q11 5 22 5q34 0 47 -32q4 -10 4 -19q0 -32 -29 -46q-11 -5 -22 -5q-34 0 -47 32q-4 10 -4 19z" glyph-name="Odieresis" horiz-adv-x="850" unicode="Ö"/>
<glyph d="M174 505l159 -159l158 159l43 -42l-159 -160l159 -159l-43 -43l-158 159l-159 -159l-42 43l159 159l-159 160z" glyph-name="multiply" horiz-adv-x="666" unicode="×"/>
<glyph d="M774 692l-76 -82q96 -103 96 -256q0 -163 -108 -269q-105 -103 -261 -103q-138 1 -236 81l-76 -81l-37 34l76 82q-96 103 -96 256q0 163 108 269q105 103 261 103q137 -1 236 -81l76 81zM651 558l-415 -445q77 -67 189 -67q146 0 229 108q64 85 64 200q-1 122 -67 204z M201 150l415 445q-75 68 -191 68q-145 0 -228 -108q-65 -85 -65 -201q1 -123 69 -204z" glyph-name="Oslash" horiz-adv-x="850" unicode="Ø"/>
<glyph d="M355 -18q-180 0 -241 150q-24 60 -24 132v444h72v-436q0 -140 84 -196q45 -30 109 -30q137 0 178 127q15 45 15 99v436h72v-444q0 -139 -79 -215q-69 -67 -186 -67zM356 764l-132 144h91l100 -144h-59z" glyph-name="Ugrave" horiz-adv-x="710" unicode="Ù"/>
<glyph d="M355 -18q-180 0 -241 150q-24 60 -24 132v444h72v-436q0 -140 84 -196q45 -30 109 -30q137 0 178 127q15 45 15 99v436h72v-444q0 -139 -79 -215q-69 -67 -186 -67zM497 908l-132 -144h-59l100 144h91z" glyph-name="Uacute" horiz-adv-x="710" unicode="Ú"/>
<glyph d="M355 -18q-180 0 -241 150q-24 60 -24 132v444h72v-436q0 -140 84 -196q45 -30 109 -30q137 0 178 127q15 45 15 99v436h72v-444q0 -139 -79 -215q-69 -67 -186 -67zM395 908l109 -144h-66l-83 108l-83 -108h-66l109 144h80z" glyph-name="Ucircumflex" horiz-adv-x="710" unicode="Û"/>
<glyph d="M355 -18q-180 0 -241 150q-24 60 -24 132v444h72v-436q0 -140 84 -196q45 -30 109 -30q137 0 178 127q15 45 15 99v436h72v-444q0 -139 -79 -215q-69 -67 -186 -67zM209 847q0 32 29 46q11 5 22 5q34 0 47 -32q4 -10 4 -19q0 -32 -29 -46q-11 -5 -22 -5q-34 0 -47 32 q-4 10 -4 19zM401 847q0 32 29 46q11 5 22 5q34 0 47 -32q4 -10 4 -19q0 -32 -29 -46q-11 -5 -22 -5q-34 0 -47 32q-4 10 -4 19z" glyph-name="Udieresis" horiz-adv-x="710" unicode="Ü"/>
<glyph d="M337 305v-305h-72v305l-265 403h90l213 -343l215 343h84zM466 908l-132 -144h-59l100 144h91z" glyph-name="Yacute" horiz-adv-x="602" unicode="Ý"/>
<glyph d="M94 0v708h72v-155h128q167 0 219 -101q20 -39 20 -88q0 -128 -122 -172q-52 -18 -119 -18h-126v-174h-72zM166 489v-252h116q162 0 172 113q1 7 1 14q-2 124 -173 125h-116z" glyph-name="Thorn" unicode="Þ"/>
<glyph d="M156 542v-542h-68v544q0 137 88 193q50 31 122 31q96 0 151 -64q41 -47 41 -113q-1 -117 -116 -159v-2q97 -12 143 -94q28 -50 28 -113q0 -130 -94 -194q-61 -41 -146 -41q-28 0 -55 5v57q26 -4 48 -4q108 0 153 80q23 42 23 98q0 122 -104 161q-40 14 -89 14h-9v60h8 q104 0 132 74q9 24 9 52q0 79 -66 110q-28 13 -60 13q-119 0 -136 -126q-3 -20 -3 -40z" glyph-name="germandbls" horiz-adv-x="597" unicode="ß"/>
<glyph d="M385 287v15q-2 120 -125 121q-84 -1 -139 -55l-38 45q61 61 167 67h17q108 0 155 -72q27 -42 27 -98v-205q0 -63 8 -105h-61q-7 41 -7 76h-2q-58 -83 -156 -88h-14q-82 0 -128 50q-34 37 -34 92q0 112 135 142q67 15 195 15zM385 234h-20q-206 0 -235 -73q-5 -13 -5 -28 q0 -69 74 -85q17 -4 36 -4q89 0 129 72q21 38 21 83v35zM276 564l-132 144h91l100 -144h-59z" glyph-name="agrave" horiz-adv-x="534" unicode="à"/>
<glyph d="M385 287v15q-2 120 -125 121q-84 -1 -139 -55l-38 45q61 61 167 67h17q108 0 155 -72q27 -42 27 -98v-205q0 -63 8 -105h-61q-7 41 -7 76h-2q-58 -83 -156 -88h-14q-82 0 -128 50q-34 37 -34 92q0 112 135 142q67 15 195 15zM385 234h-20q-206 0 -235 -73q-5 -13 -5 -28 q0 -69 74 -85q17 -4 36 -4q89 0 129 72q21 38 21 83v35zM406 708l-132 -144h-59l100 144h91z" glyph-name="aacute" horiz-adv-x="534" unicode="á"/>
<glyph d="M385 287v15q-2 120 -125 121q-84 -1 -139 -55l-38 45q61 61 167 67h17q108 0 155 -72q27 -42 27 -98v-205q0 -63 8 -105h-61q-7 41 -7 76h-2q-58 -83 -156 -88h-14q-82 0 -128 50q-34 37 -34 92q0 112 135 142q67 15 195 15zM385 234h-20q-206 0 -235 -73q-5 -13 -5 -28 q0 -69 74 -85q17 -4 36 -4q89 0 129 72q21 38 21 83v35zM309 708l109 -144h-66l-83 108l-83 -108h-66l109 144h80z" glyph-name="acircumflex" horiz-adv-x="534" unicode="â"/>
<glyph d="M385 287v15q-2 120 -125 121q-84 -1 -139 -55l-38 45q61 61 167 67h17q108 0 155 -72q27 -42 27 -98v-205q0 -63 8 -105h-61q-7 41 -7 76h-2q-58 -83 -156 -88h-14q-82 0 -128 50q-34 37 -34 92q0 112 135 142q67 15 195 15zM385 234h-20q-206 0 -235 -73q-5 -13 -5 -28 q0 -69 74 -85q17 -4 36 -4q89 0 129 72q21 38 21 83v35zM146 576h-43q20 103 92 104q28 0 73 -23q50 -23 67 -23q37 1 49 50h43q-20 -103 -92 -104q-30 0 -73 23q-44 23 -67 23q-37 -1 -49 -50z" glyph-name="atilde" horiz-adv-x="534" unicode="ã"/>
<glyph d="M385 287v15q-2 120 -125 121q-84 -1 -139 -55l-38 45q61 61 167 67h17q108 0 155 -72q27 -42 27 -98v-205q0 -63 8 -105h-61q-7 41 -7 76h-2q-58 -83 -156 -88h-14q-82 0 -128 50q-34 37 -34 92q0 112 135 142q67 15 195 15zM385 234h-20q-206 0 -235 -73q-5 -13 -5 -28 q0 -69 74 -85q17 -4 36 -4q89 0 129 72q21 38 21 83v35zM119 647q0 32 29 46q11 5 22 5q34 0 47 -32q4 -10 4 -19q0 -32 -29 -46q-11 -5 -22 -5q-34 0 -47 32q-4 10 -4 19zM311 647q0 32 29 46q11 5 22 5q34 0 47 -32q4 -10 4 -19q0 -32 -29 -46q-11 -5 -22 -5q-34 0 -47 32 q-4 10 -4 19z" glyph-name="adieresis" horiz-adv-x="534" unicode="ä"/>
<glyph d="M385 287v15q-2 120 -125 121q-84 -1 -139 -55l-38 45q61 61 167 67h17q108 0 155 -72q27 -42 27 -98v-205q0 -63 8 -105h-61q-7 41 -7 76h-2q-58 -83 -156 -88h-14q-82 0 -128 50q-34 37 -34 92q0 112 135 142q67 15 195 15zM385 234h-20q-206 0 -235 -73q-5 -13 -5 -28 q0 -69 74 -85q17 -4 36 -4q89 0 129 72q21 38 21 83v35zM361 650q0 -54 -47 -82q-23 -13 -49 -13q-53 0 -81 44q-15 24 -15 51q0 54 47 82q23 13 49 13q53 0 81 -44q15 -24 15 -51zM325 650q0 37 -34 53q-13 6 -26 6q-38 0 -54 -33q-6 -13 -6 -26q0 -37 34 -53q13 -6 26 -6 q38 0 54 33q6 13 6 26z" glyph-name="aring" horiz-adv-x="534" unicode="å"/>
<glyph d="M446 270h299q0 92 -65 132q-35 21 -79 21q-72 0 -120 -61q-33 -42 -35 -92zM380 216h-20q-158 0 -205 -33q-28 -22 -29 -57q2 -82 111 -83q109 0 136 88q7 24 7 51v34zM814 248q0 -23 -1 -32h-370q2 -85 64 -135q44 -36 99 -36q81 0 131 64q7 9 12 17l49 -39 q-76 -99 -192 -99q-113 0 -170 80q-9 14 -16 29q-47 -109 -195 -109q-98 0 -143 57q-26 34 -26 80q0 108 151 134q63 11 173 11v15q0 102 -72 130q-22 8 -48 8q-84 -1 -144 -55l-39 44q58 55 156 66q19 2 37 2q98 0 141 -72q8 -13 13 -26q48 76 135 94q21 4 42 4 q125 0 181 -100q32 -57 32 -132z" glyph-name="ae" horiz-adv-x="870" unicode="æ"/>
<glyph d="M480 399l-53 -38q-29 48 -92 59q-15 3 -28 3q-99 0 -149 -78q-30 -49 -30 -111q0 -100 70 -153q46 -35 108 -35q81 1 127 61l51 -38q-65 -78 -172 -81l-39 -63q14 4 35 4q50 0 72 -36q10 -17 10 -36q0 -67 -79 -83q-19 -4 -39 -4q-51 0 -94 20l16 36q31 -14 72 -14 q38 0 56 22q8 10 8 22q-2 38 -54 39q-23 0 -43 -8l-18 15l55 88q-119 14 -177 108q-37 60 -37 136q0 122 86 192q68 54 164 54q88 0 150 -55q14 -12 24 -26z" glyph-name="ccedilla" horiz-adv-x="500" unicode="ç"/>
<glyph d="M128 270h319q-4 97 -76 135q-35 18 -79 18q-82 0 -131 -66q-29 -40 -33 -87zM516 248q0 -20 -1 -32h-388q2 -85 67 -135q46 -35 104 -35q83 0 136 62q8 10 14 19l51 -40q-79 -99 -201 -99q-115 0 -185 83q-57 69 -57 163q0 116 81 188q66 58 155 58q131 0 190 -100 q34 -57 34 -132zM282 564l-132 144h91l100 -144h-59z" glyph-name="egrave" horiz-adv-x="572" unicode="è"/>
<glyph d="M128 270h319q-4 97 -76 135q-35 18 -79 18q-82 0 -131 -66q-29 -40 -33 -87zM516 248q0 -20 -1 -32h-388q2 -85 67 -135q46 -35 104 -35q83 0 136 62q8 10 14 19l51 -40q-79 -99 -201 -99q-115 0 -185 83q-57 69 -57 163q0 116 81 188q66 58 155 58q131 0 190 -100 q34 -57 34 -132zM442 708l-132 -144h-59l100 144h91z" glyph-name="eacute" horiz-adv-x="572" unicode="é"/>
<glyph d="M128 270h319q-4 97 -76 135q-35 18 -79 18q-82 0 -131 -66q-29 -40 -33 -87zM516 248q0 -20 -1 -32h-388q2 -85 67 -135q46 -35 104 -35q83 0 136 62q8 10 14 19l51 -40q-79 -99 -201 -99q-115 0 -185 83q-57 69 -57 163q0 116 81 188q66 58 155 58q131 0 190 -100 q34 -57 34 -132zM339 708l109 -144h-66l-83 108l-83 -108h-66l109 144h80z" glyph-name="ecircumflex" horiz-adv-x="572" unicode="ê"/>
<glyph d="M128 270h319q-4 97 -76 135q-35 18 -79 18q-82 0 -131 -66q-29 -40 -33 -87zM516 248q0 -20 -1 -32h-388q2 -85 67 -135q46 -35 104 -35q83 0 136 62q8 10 14 19l51 -40q-79 -99 -201 -99q-115 0 -185 83q-57 69 -57 163q0 116 81 188q66 58 155 58q131 0 190 -100 q34 -57 34 -132zM152 647q0 32 29 46q11 5 22 5q34 0 47 -32q4 -10 4 -19q0 -32 -29 -46q-11 -5 -22 -5q-34 0 -47 32q-4 10 -4 19zM344 647q0 32 29 46q11 5 22 5q34 0 47 -32q4 -10 4 -19q0 -32 -29 -46q-11 -5 -22 -5q-34 0 -47 32q-4 10 -4 19z" glyph-name="edieresis" horiz-adv-x="572" unicode="ë"/>
<glyph d="M159 468v-468h-68v468h68zM99 564l-132 144h91l100 -144h-59z" glyph-name="igrave" horiz-adv-x="250" unicode="ì"/>
<glyph d="M159 468v-468h-68v468h68zM282 708l-132 -144h-59l100 144h91z" glyph-name="iacute" horiz-adv-x="250" unicode="í"/>
<glyph d="M159 468v-468h-68v468h68zM167 708l109 -144h-66l-83 108l-83 -108h-66l109 144h80z" glyph-name="icircumflex" horiz-adv-x="250" unicode="î"/>
<glyph d="M159 468v-468h-68v468h68zM-21 647q0 32 29 46q11 5 22 5q34 0 47 -32q4 -10 4 -19q0 -32 -29 -46q-11 -5 -22 -5q-34 0 -47 32q-4 10 -4 19zM171 647q0 32 29 46q11 5 22 5q34 0 47 -32q4 -10 4 -19q0 -32 -29 -46q-11 -5 -22 -5q-34 0 -47 32q-4 10 -4 19z" glyph-name="idieresis" horiz-adv-x="250" unicode="ï"/>
<glyph d="M120 234q0 -100 69 -152q46 -34 107 -34q99 0 148 78q29 47 29 108q0 100 -69 152q-46 34 -108 34q-98 0 -147 -78q-29 -47 -29 -108zM455 714l-103 -54q134 -124 177 -286q16 -62 16 -122q0 -119 -70 -194q-67 -70 -179 -70q-121 0 -193 86q-55 67 -55 160q0 118 84 189 q68 57 164 57q81 -1 150 -58l2 2q-57 120 -156 205l-112 -57l-36 36l110 56q-30 29 -100 77l59 37q60 -45 100 -82l102 53z" glyph-name="eth" horiz-adv-x="611" unicode="ð"/>
<glyph d="M86 468h65q4 -50 4 -80h2q27 57 99 82q31 10 61 10q127 0 165 -107q13 -38 13 -86v-287h-68v259q0 138 -87 160q-19 4 -40 4q-73 0 -113 -65q-29 -48 -29 -118v-240h-68v365q0 60 -4 103zM174 576h-43q20 103 92 104q28 0 73 -23q50 -23 67 -23q37 1 49 50h43 q-20 -103 -92 -104q-30 0 -73 23q-44 23 -67 23q-37 -1 -49 -50z" glyph-name="ntilde" horiz-adv-x="581" unicode="ñ"/>
<glyph d="M555 234q0 -118 -85 -189q-69 -57 -165 -57q-121 0 -193 85q-56 68 -56 161q0 118 84 189q69 57 165 57q122 0 194 -86q56 -67 56 -160zM483 234q0 98 -68 152q-47 37 -110 37q-97 0 -146 -78q-31 -49 -31 -111q0 -99 68 -152q47 -36 109 -36q98 0 148 78q30 48 30 110z M285 564l-132 144h91l100 -144h-59z" glyph-name="ograve" horiz-adv-x="611" unicode="ò"/>
<glyph d="M555 234q0 -118 -85 -189q-69 -57 -165 -57q-121 0 -193 85q-56 68 -56 161q0 118 84 189q69 57 165 57q122 0 194 -86q56 -67 56 -160zM483 234q0 98 -68 152q-47 37 -110 37q-97 0 -146 -78q-31 -49 -31 -111q0 -99 68 -152q47 -36 109 -36q98 0 148 78q30 48 30 110z M455 708l-132 -144h-59l100 144h91z" glyph-name="oacute" horiz-adv-x="611" unicode="ó"/>
<glyph d="M555 234q0 -118 -85 -189q-69 -57 -165 -57q-121 0 -193 85q-56 68 -56 161q0 118 84 189q69 57 165 57q122 0 194 -86q56 -67 56 -160zM483 234q0 98 -68 152q-47 37 -110 37q-97 0 -146 -78q-31 -49 -31 -111q0 -99 68 -152q47 -36 109 -36q98 0 148 78q30 48 30 110z M345 708l109 -144h-66l-83 108l-83 -108h-66l109 144h80z" glyph-name="ocircumflex" horiz-adv-x="611" unicode="ô"/>
<glyph d="M555 234q0 -118 -85 -189q-69 -57 -165 -57q-121 0 -193 85q-56 68 -56 161q0 118 84 189q69 57 165 57q122 0 194 -86q56 -67 56 -160zM483 234q0 98 -68 152q-47 37 -110 37q-97 0 -146 -78q-31 -49 -31 -111q0 -99 68 -152q47 -36 109 -36q98 0 148 78q30 48 30 110z M186 576h-43q20 103 92 104q28 0 73 -23q50 -23 67 -23q37 1 49 50h43q-20 -103 -92 -104q-30 0 -73 23q-44 23 -67 23q-37 -1 -49 -50z" glyph-name="otilde" horiz-adv-x="611" unicode="õ"/>
<glyph d="M555 234q0 -118 -85 -189q-69 -57 -165 -57q-121 0 -193 85q-56 68 -56 161q0 118 84 189q69 57 165 57q122 0 194 -86q56 -67 56 -160zM483 234q0 98 -68 152q-47 37 -110 37q-97 0 -146 -78q-31 -49 -31 -111q0 -99 68 -152q47 -36 109 -36q98 0 148 78q30 48 30 110z M158 647q0 32 29 46q11 5 22 5q34 0 47 -32q4 -10 4 -19q0 -32 -29 -46q-11 -5 -22 -5q-34 0 -47 32q-4 10 -4 19zM350 647q0 32 29 46q11 5 22 5q34 0 47 -32q4 -10 4 -19q0 -32 -29 -46q-11 -5 -22 -5q-34 0 -47 32q-4 10 -4 19z" glyph-name="odieresis" horiz-adv-x="611" unicode="ö"/>
<glyph d="M588 333v-60h-510v60h510zM387 465q0 -34 -30 -48q-12 -6 -24 -6q-36 0 -50 33q-4 11 -4 21q0 34 30 48q12 6 24 6q36 0 50 -33q4 -11 4 -21zM387 141q0 -34 -30 -48q-12 -6 -24 -6q-36 0 -50 33q-4 11 -4 21q0 34 30 48q12 6 24 6q36 0 50 -33q4 -11 4 -21z" glyph-name="divide" horiz-adv-x="666" unicode="÷"/>
<glyph d="M450 351l-262 -269q49 -39 115 -39q99 0 151 78q32 49 32 113q-1 73 -36 117zM159 116l262 269q-41 40 -116 40q-100 0 -150 -80q-30 -49 -30 -111q1 -73 34 -118zM561 465l-66 -68q60 -69 60 -163q0 -118 -85 -188q-69 -58 -166 -58q-92 1 -157 52l-67 -68l-32 31l66 68 q-58 68 -58 163q0 118 84 189q68 57 164 57q91 -1 159 -52l66 68z" glyph-name="oslash" horiz-adv-x="611" unicode="ø"/>
<glyph d="M495 0h-65q-4 50 -4 80h-2q-27 -57 -99 -82q-31 -10 -61 -10q-127 0 -165 107q-13 38 -13 86v287h68v-259q0 -138 87 -160q19 -4 40 -4q73 0 113 65q29 48 29 118v240h68v-365q0 -60 4 -103zM277 564l-132 144h91l100 -144h-59z" glyph-name="ugrave" horiz-adv-x="581" unicode="ù"/>
<glyph d="M495 0h-65q-4 50 -4 80h-2q-27 -57 -99 -82q-31 -10 -61 -10q-127 0 -165 107q-13 38 -13 86v287h68v-259q0 -138 87 -160q19 -4 40 -4q73 0 113 65q29 48 29 118v240h68v-365q0 -60 4 -103zM432 708l-132 -144h-59l100 144h91z" glyph-name="uacute" horiz-adv-x="581" unicode="ú"/>
<glyph d="M495 0h-65q-4 50 -4 80h-2q-27 -57 -99 -82q-31 -10 -61 -10q-127 0 -165 107q-13 38 -13 86v287h68v-259q0 -138 87 -160q19 -4 40 -4q73 0 113 65q29 48 29 118v240h68v-365q0 -60 4 -103zM329 708l109 -144h-66l-83 108l-83 -108h-66l109 144h80z" glyph-name="ucircumflex" horiz-adv-x="581" unicode="û"/>
<glyph d="M495 0h-65q-4 50 -4 80h-2q-27 -57 -99 -82q-31 -10 -61 -10q-127 0 -165 107q-13 38 -13 86v287h68v-259q0 -138 87 -160q19 -4 40 -4q73 0 113 65q29 48 29 118v240h68v-365q0 -60 4 -103zM142 647q0 32 29 46q11 5 22 5q34 0 47 -32q4 -10 4 -19q0 -32 -29 -46 q-11 -5 -22 -5q-34 0 -47 32q-4 10 -4 19zM334 647q0 32 29 46q11 5 22 5q34 0 47 -32q4 -10 4 -19q0 -32 -29 -46q-11 -5 -22 -5q-34 0 -47 32q-4 10 -4 19z" glyph-name="udieresis" horiz-adv-x="581" unicode="ü"/>
<glyph d="M92 468l159 -395h2l145 395h74l-233 -589q-35 -91 -96 -111q-23 -8 -51 -8q-31 0 -61 6l7 62q25 -8 50 -8q52 0 81 61q5 11 9 22l38 98l-200 467h76zM399 708l-132 -144h-59l100 144h91z" glyph-name="yacute" horiz-adv-x="488" unicode="ý"/>
<glyph d="M334 -12q-102 0 -162 74q-7 9 -12 17h-2v-319h-66v996h66v-369h2q51 78 144 91q15 2 30 2q115 0 186 -83q57 -69 57 -163q0 -117 -83 -188q-67 -58 -160 -58zM505 234q0 100 -69 152q-46 34 -108 34q-98 0 -147 -78q-29 -47 -29 -108q0 -100 69 -152q46 -34 107 -34 q99 0 148 78q29 47 29 108z" glyph-name="thorn" horiz-adv-x="633" unicode="þ"/>
</font>
</defs>
</svg>
