<svg width="0" height="0" class="hidden">
  <symbol xmlns="http://www.w3.org/2000/svg" viewBox="0 0 491.996 491.996" id="arrow">
    <path d="M484.132 124.986l-16.116-16.228c-5.072-5.068-11.82-7.86-19.032-7.86-7.208 0-13.964 2.792-19.036 7.86l-183.84 183.848L62.056 108.554c-5.064-5.068-11.82-7.856-19.028-7.856s-13.968 2.788-19.036 7.856l-16.12 16.128c-10.496 10.488-10.496 27.572 0 38.06l219.136 219.924c5.064 5.064 11.812 8.632 19.084 8.632h.084c7.212 0 13.96-3.572 19.024-8.632l218.932-219.328c5.072-5.064 7.856-12.016 7.864-19.224 0-7.212-2.792-14.068-7.864-19.128z"></path>
  </symbol>
  <symbol xmlns="http://www.w3.org/2000/svg" viewBox="0 0 480.002 480.002" id="brush">
    <path d="M456 288.001h-72v-120h72a8 8 0 0 0 8-8v-39.44L479.92 9.137A8 8 0 0 0 472 .001H248a8 8 0 0 0-7.92 9.136L256 120.561v39.44a8 8 0 0 0 8 8h72v120h-8c-13.255 0-24 10.745-24 24s10.745 24 24 24h8v16h-56l7.464-112H296a8 8 0 0 0 8-8v-32a8 8 0 0 0-8-8h-56.6a56.112 56.112 0 0 0-28.336-40.984c12.684-28.207.1-61.356-28.108-74.04-28.207-12.684-61.356-.1-74.04 28.108a55.97 55.97 0 0 0-4.412 15.397c-43.856-4.744-83.255 26.962-87.999 70.818-.025.234-.05.468-.073.702H8a8 8 0 0 0-8 8v32a8 8 0 0 0 8 8h8.52L32 472.529a8 8 0 0 0 8 7.472h432a8 8 0 0 0 8-8v-160c0-13.255-10.745-24-24-24zm-198.776-272H288v48h16v-48h16v16h16v-16h48v24h16v-24h16v48h16v-48h30.776l-13.712 96H270.936l-13.712-96zm14.776 136v-24h176v24H272zm96 16v120h-16v-120h16zm-80 40v16H168v-16h120zm-184.237-71.496c2.199.273 4.382.66 6.541 1.16h.264a64.298 64.298 0 0 1 25.656 12.552l10.064-12.44a80.388 80.388 0 0 0-25.872-13.872c2.297-21.914 21.924-37.817 43.838-35.52 21.914 2.297 37.817 21.924 35.52 43.838a39.897 39.897 0 0 1-6.557 18.082 8 8 0 0 0 4 12 40.001 40.001 0 0 1 25.872 29.696H160a8 8 0 0 0-8 8v72a8 8 0 0 1-16 0v-16c0-13.255-10.745-24-24-24s-24 10.745-24 24v56a8 8 0 0 1-16 0v-112a8 8 0 0 0-8-8H32.536c4.344-34.994 36.233-59.84 71.227-55.496zM16 224.001v-16h40v16H16zm208 152v88H47.488l-14.936-224H56v72c0 13.255 10.745 24 24 24s24-10.745 24-24v-56a8 8 0 0 1 16 0v16c0 13.255 10.745 24 24 24s24-10.745 24-24v-32h103.448l-7.448 112h-16c-13.255 0-24 10.745-24 24zm240 88h-24v-40h-16v40h-24v-40h-16v40h-24v-40h-16v40h-24v-40h-16v40h-24v-40h-16v40h-24v-64h224v64zm0-80H240v-8a8 8 0 0 1 8-8h176c13.255 0 24-10.745 24-24s-10.745-24-24-24h-96a8 8 0 0 1 0-16h128a8 8 0 0 1 8 8v72zm-112-32v-16h16v16h-16zm32 0v-16h40a8 8 0 0 1 0 16h-40zm-352-272v-16H16v16H0v16h16v16h16v-16h16v-16z"></path>
    <path d="M456 224.001v-16h-16v16h-16v16h16v16h16v-16h16v-16zm-304-208v-16h-16v16h-16v16h16v16h16v-16h16v-16zm136 64h16v16h-16z"></path>
  </symbol>
  <symbol xmlns="http://www.w3.org/2000/svg" viewBox="0 0 112.196 112.196" id="facebook">
    <circle cx="56.098" cy="56.098" r="56.098" fill="#3b5998"></circle>
    <path d="M70.201 58.294h-10.01v36.672H45.025V58.294h-7.213V45.406h7.213v-8.34c0-5.964 2.833-15.303 15.301-15.303l11.234.047v12.51h-8.151c-1.337 0-3.217.668-3.217 3.513v7.585h11.334l-1.325 12.876z" fill="#fff"></path>
  </symbol>
  <symbol xmlns="http://www.w3.org/2000/svg" viewBox="0 0 512 512" id="house">
    <path d="M380.917 317.752h-25.418c-5.79 0-10.5 4.71-10.5 10.5v67.847c0 5.79 4.711 10.5 10.5 10.5h25.418c5.79 0 10.5-4.71 10.5-10.5v-67.847c0-5.791-4.71-10.5-10.5-10.5zm-4.5 73.847h-16.418v-58.847h16.418v58.847zm71.943-73.847h-25.418c-5.79 0-10.5 4.71-10.5 10.5v67.847c0 5.79 4.71 10.5 10.5 10.5h25.418c5.79 0 10.5-4.71 10.5-10.5v-67.847c0-5.791-4.71-10.5-10.5-10.5zm-4.5 73.847h-16.418v-58.847h16.418v58.847zM103.022 155.443c-14.011-4.364-15.698-6.051-20.062-20.062a10.71 10.71 0 0 0-10.271-7.559 10.706 10.706 0 0 0-10.27 7.559c-4.363 14.011-6.05 15.698-20.061 20.062a10.71 10.71 0 0 0-7.56 10.27 10.706 10.706 0 0 0 7.56 10.27c14.011 4.363 15.699 6.05 20.06 20.057a10.707 10.707 0 0 0 10.271 7.564 10.71 10.71 0 0 0 10.271-7.559c4.364-14.011 6.051-15.699 20.056-20.06a10.706 10.706 0 0 0 7.565-10.273c0-4.735-3.038-8.862-7.559-10.269zM72.69 180.744c-3.458-7.324-7.704-11.571-15.03-15.029 7.326-3.459 11.572-7.706 15.03-15.031 3.458 7.325 7.705 11.572 15.029 15.03-7.324 3.457-11.571 7.705-15.029 15.03zm220.881 227.521c-11.206-3.489-12.235-4.518-15.723-15.719a10.144 10.144 0 0 0-9.732-7.165 10.149 10.149 0 0 0-9.731 7.161c-3.489 11.205-4.517 12.234-15.712 15.721a10.14 10.14 0 0 0-7.172 9.733c0 4.489 2.88 8.4 7.161 9.73 11.206 3.49 12.234 4.519 15.725 15.729a10.148 10.148 0 0 0 9.73 7.157c4.489 0 8.4-2.88 9.731-7.162 3.49-11.206 4.518-12.234 15.718-15.723a10.144 10.144 0 0 0 7.167-9.732c0-4.493-2.883-8.404-7.162-9.73zm-25.455 19.342c-2.403-4.268-5.342-7.207-9.61-9.61 4.269-2.403 7.208-5.342 9.61-9.611 2.403 4.267 5.342 7.207 9.611 9.61-4.269 2.402-7.207 5.342-9.611 9.611zm227.016-245.971c-11.205-3.49-12.234-4.519-15.724-15.722a10.144 10.144 0 0 0-9.731-7.163 10.15 10.15 0 0 0-9.732 7.161c-3.489 11.205-4.517 12.234-15.717 15.722a10.142 10.142 0 0 0-7.168 9.732c0 4.485 2.878 8.395 7.162 9.73 11.206 3.49 12.234 4.519 15.725 15.728a10.148 10.148 0 0 0 9.73 7.159c4.488 0 8.398-2.879 9.73-7.161 3.49-11.206 4.519-12.235 15.725-15.725a10.147 10.147 0 0 0 7.162-9.73c0-4.489-2.88-8.401-7.162-9.731zm-25.455 19.341c-2.403-4.268-5.342-7.208-9.611-9.611 4.269-2.404 7.208-5.342 9.611-9.611 2.403 4.268 5.342 7.208 9.611 9.611-4.269 2.404-7.208 5.342-9.611 9.611z"></path>
    <path d="M491.218 438.253V382a7.5 7.5 0 0 0-15 0v52.117c-4.487-4.896-10.926-7.976-18.074-7.976-2.384 0-4.745.352-7.006 1.027-4.441-6.668-12.027-10.961-20.428-10.961-11.685 0-21.487 8.212-23.939 19.168a24.846 24.846 0 0 0-7.726.122c-2.036-11.485-12.092-20.235-24.152-20.235-13.525 0-24.529 11.004-24.529 24.529V465.4h-30.68V308.943h156.533V342a7.5 7.5 0 0 0 15 0v-33.056H499c4.435 0 7.957-2.122 9.423-5.676 1.466-3.554.463-7.542-2.682-10.669l-114.879-114.19c-3.379-3.359-9.067-5.705-13.832-5.705h-.003l-217.779.018c-4.469 0-9.932 2.334-13.305 5.687l-38.231 38.001a7.5 7.5 0 0 0-.032 10.606 7.497 7.497 0 0 0 10.606.032l39.018-38.791 7.511 7.543-96.802 96.802c-.583.561-2.429 1.327-3.235 1.341h-13.79l42.299-42.044a7.5 7.5 0 0 0 .032-10.606 7.5 7.5 0 0 0-10.606-.032l-51.65 51.34c-3.145 3.126-4.146 7.114-2.681 10.668 1.466 3.554 4.988 5.675 9.423 5.675h24.474v29.377c-2.16.956-4.825 1.855-8.217 2.912a10.709 10.709 0 0 0-7.562 10.271c0 4.734 3.037 8.862 7.56 10.272 3.392 1.056 6.058 1.956 8.218 2.912v50.624c-9.78 1.634-17.945 8.102-21.93 16.894a29.31 29.31 0 0 0-10.942-2.096C13.192 430.107 0 443.299 0 459.515v13.387a7.5 7.5 0 0 0 7.5 7.5h497a7.5 7.5 0 0 0 7.5-7.5v-10.405c0-12.254-9.029-22.435-20.782-24.244zm-428.94 27.148H15v-5.887c0-7.944 6.463-14.406 14.407-14.406 3.954 0 7.648 1.585 10.4 4.464 2.118 2.214 5.371 2.875 8.213 1.734 2.844-1.141 4.708-3.941 4.708-7.005 0-6.238 3.993-11.547 9.55-13.546v34.646zm423.538-171.458H285.603c-.805-.016-2.641-.778-3.217-1.335l-17.1-17.173h201.91l18.62 18.508zm-63.418-63.039H395a7.5 7.5 0 0 0 0 15h42.489l14.618 14.53H250.35l-14.468-14.53H353a7.5 7.5 0 0 0 0-15H220.945l-14.469-14.531h201.303l14.619 14.531zm-45.371-43.201c.815.014 2.675.781 3.261 1.343l12.401 12.327H191.54l-13.579-13.637 199.066-.033zM201.184 465.401h-54.331V332.752h54.331v132.649zm15 0V330.252c0-6.893-5.607-12.5-12.5-12.5h-59.331c-6.893 0-12.5 5.607-12.5 12.5v135.149H77.278v-78.684a10.724 10.724 0 0 0 7.113 2.677c4.739 0 8.867-3.04 10.27-7.559 4.364-14.012 6.052-15.699 20.067-20.063a10.713 10.713 0 0 0 7.554-10.271c0-4.735-3.038-8.862-7.559-10.27-14.011-4.363-15.698-6.05-20.061-20.056a10.706 10.706 0 0 0-10.271-7.564c-2.7 0-5.199.99-7.113 2.677v-9.843c.015-.81.78-2.655 1.339-3.236l96.783-96.782 96.357 96.764c3.372 3.386 9.064 5.751 13.842 5.751h19.085v156.459h-88.5zM69.361 351.503c7.326-3.458 11.572-7.704 15.03-15.03 3.459 7.326 7.705 11.572 15.03 15.03-7.324 3.458-11.571 7.704-15.03 15.03-3.457-7.327-7.704-11.572-15.03-15.03zm427.64 113.898H365.364v-25.609c0-5.254 4.274-9.529 9.529-9.529 5.253 0 9.528 4.275 9.528 9.529v7.198a7.5 7.5 0 0 0 12.506 5.584 9.503 9.503 0 0 1 6.346-2.444c2.115 0 4.125.691 5.812 1.999a7.5 7.5 0 1 0 12.095-5.928v-5.463c0-5.254 4.275-9.529 9.529-9.529 4.544 0 8.474 3.232 9.344 7.685a7.5 7.5 0 0 0 12.094 4.38 9.399 9.399 0 0 1 5.997-2.131c5.254 0 9.529 4.274 9.529 9.597a7.5 7.5 0 0 0 12.921 5.184c1.822-1.906 4.265-2.955 6.878-2.955 5.254 0 9.529 4.275 9.529 9.529v2.903z"></path>
    <path d="M188.935 381.858a7.5 7.5 0 0 0-7.5 7.5v10.549a7.5 7.5 0 0 0 15 0v-10.549a7.5 7.5 0 0 0-7.5-7.5zM255 332.612h-19c-5.79 0-10.5 4.71-10.5 10.5v23c0 5.79 4.71 10.5 10.5 10.5h19c5.79 0 10.5-4.71 10.5-10.5v-23c0-5.791-4.71-10.5-10.5-10.5zm-4.5 29h-10v-14h10v14zM389 31.599c-28.397 0-51.5 23.103-51.5 51.5s23.103 51.5 51.5 51.5 51.5-23.103 51.5-51.5-23.103-51.5-51.5-51.5zm0 88c-20.126 0-36.5-16.374-36.5-36.5s16.374-36.5 36.5-36.5 36.5 16.374 36.5 36.5-16.374 36.5-36.5 36.5z"></path>
  </symbol>
  <symbol xmlns="http://www.w3.org/2000/svg" viewBox="0 0 291.319 291.319" id="linkedin">
    <path d="M145.659 0c80.45 0 145.66 65.219 145.66 145.66s-65.21 145.659-145.66 145.659S0 226.1 0 145.66 65.21 0 145.659 0z" fill="#0e76a8"></path>
    <path d="M82.079 200.136h27.275v-90.91H82.079v90.91zm106.259-94.059c-13.237 0-25.081 4.834-33.483 15.504v-12.654H127.48v91.21h27.375v-49.324c0-10.424 9.55-20.593 21.512-20.593s14.912 10.169 14.912 20.338v49.57h27.275v-51.6c-.001-35.842-16.97-42.451-30.216-42.451zm-92.749-5.936c7.538 0 13.656-6.118 13.656-13.656S103.127 72.83 95.589 72.83s-13.656 6.118-13.656 13.656 6.118 13.655 13.656 13.655z"
      fill="#fff"></path>
  </symbol>
  <symbol xmlns="http://www.w3.org/2000/svg" viewBox="0 0 512 512" id="map-marker">
    <path d="M256.004 74.634c-55.794 0-101.187 45.385-101.187 101.179C154.817 231.607 200.21 277 256.004 277s101.187-45.385 101.187-101.179c0-55.793-45.393-101.187-101.187-101.187zm0 186.366c-46.969 0-85.187-38.217-85.187-85.187s38.217-85.179 85.187-85.179c46.977 0 85.187 38.217 85.187 85.187S302.982 261 256.004 261z"></path>
    <path d="M256.004 0C159.057 0 80.191 78.866 80.183 175.813c0 94.155 162.389 323.138 169.301 332.842a8.004 8.004 0 0 0 6.528 3.344c2.6 0 5.032-1.272 6.536-3.384 6.912-9.728 169.269-239.295 169.269-332.794C431.818 78.874 352.951 0 256.004 0zm.024 490.095C225.307 445.758 96.191 254.704 96.191 175.813 96.191 87.691 167.881 16 256.004 16s159.813 71.698 159.813 159.821c0 68.179-100.963 230.12-159.789 314.274z"></path>
  </symbol>
  <symbol viewBox="0 -192 469.333 469" xmlns="http://www.w3.org/2000/svg" id="minus">
    <path d="M437.332.168H32c-17.664 0-32 14.336-32 32V53.5c0 17.664 14.336 32 32 32h405.332c17.664 0 32-14.336 32-32V32.168c0-17.664-14.336-32-32-32zm0 0"></path>
  </symbol>
  <symbol viewBox="0 0 448 448" xmlns="http://www.w3.org/2000/svg" id="plus">
    <path d="M408 184H272a8 8 0 0 1-8-8V40c0-22.09-17.91-40-40-40s-40 17.91-40 40v136a8 8 0 0 1-8 8H40c-22.09 0-40 17.91-40 40s17.91 40 40 40h136a8 8 0 0 1 8 8v136c0 22.09 17.91 40 40 40s40-17.91 40-40V272a8 8 0 0 1 8-8h136c22.09 0 40-17.91 40-40s-17.91-40-40-40zm0 0"></path>
  </symbol>
  <symbol xmlns="http://www.w3.org/2000/svg" viewBox="0 0 112.197 112.197" id="twitter">
    <circle cx="56.099" cy="56.098" r="56.098" fill="#55acee"></circle>
    <path d="M90.461 40.316a26.753 26.753 0 0 1-7.702 2.109 13.445 13.445 0 0 0 5.897-7.417 26.843 26.843 0 0 1-8.515 3.253 13.396 13.396 0 0 0-9.79-4.233c-7.404 0-13.409 6.005-13.409 13.409 0 1.051.119 2.074.349 3.056-11.144-.559-21.025-5.897-27.639-14.012a13.351 13.351 0 0 0-1.816 6.742c0 4.651 2.369 8.757 5.965 11.161a13.314 13.314 0 0 1-6.073-1.679l-.001.17c0 6.497 4.624 11.916 10.757 13.147a13.362 13.362 0 0 1-3.532.471c-.866 0-1.705-.083-2.523-.239 1.706 5.326 6.657 9.203 12.526 9.312a26.904 26.904 0 0 1-16.655 5.74c-1.08 0-2.15-.063-3.197-.188a37.929 37.929 0 0 0 20.553 6.025c24.664 0 38.152-20.432 38.152-38.153 0-.581-.013-1.16-.039-1.734a27.192 27.192 0 0 0 6.692-6.94z"
      fill="#f1f2f2"></path>
  </symbol>
</svg>